{
  "accessors": [
    {
      "bufferView": 2,
      "componentType": 5126,
      "count": 65534,
      "max": [
        64.0338134765625,
        62.711063385009766,
        16.002159118652344
      ],
      "min": [
        -54.41584014892578,
        -65.30572509765625,
        -1.0336408615112305
      ],
      "type": "VEC3"
    },
    {
      "bufferView": 2,
      "byteOffset": 786408,
      "componentType": 5126,
      "count": 65534,
      "max": [
        1.0,
        1.0,
        1.0
      ],
      "min": [
        -1.0,
        -1.0,
        -1.0
      ],
      "type": "VEC3"
    },
    {
      "bufferView": 1,
      "componentType": 5126,
      "count": 65534,
      "max": [
        0.9994732141494751,
        0.9381662011146545
      ],
      "min": [
        0.0004740580916404724,
        0.0004747062921524048
      ],
      "type": "VEC2"
    },
    {
      "bufferView": 0,
      "componentType": 5125,
      "count": 129303,
      "type": "SCALAR"
    },
    {
      "bufferView": 2,
      "byteOffset": 1572816,
      "componentType": 5126,
      "count": 65532,
      "max": [
        22.095224380493164,
        13.633673667907715,
        14.653910636901855
      ],
      "min": [
        -31.78315544128418,
        -21.958839416503906,
        -0.24332332611083984
      ],
      "type": "VEC3"
    },
    {
      "bufferView": 2,
      "byteOffset": 2359200,
      "componentType": 5126,
      "count": 65532,
      "max": [
        0.9999083280563354,
        0.9999604225158691,
        1.0
      ],
      "min": [
        -0.99998939037323,
        -0.9999824166297913,
        -1.0
      ],
      "type": "VEC3"
    },
    {
      "bufferView": 1,
      "byteOffset": 524272,
      "componentType": 5126,
      "count": 65532,
      "max": [
        0.999479353427887,
        0.9395168423652649
      ],
      "min": [
        0.00047707557678222656,
        0.00047522131353616714
      ],
      "type": "VEC2"
    },
    {
      "bufferView": 0,
      "byteOffset": 517212,
      "componentType": 5125,
      "count": 146691,
      "type": "SCALAR"
    },
    {
      "bufferView": 2,
      "byteOffset": 3145584,
      "componentType": 5126,
      "count": 65532,
      "max": [
        49.143333435058594,
        47.049198150634766,
        13.911328315734863
      ],
      "min": [
        -54.43999481201172,
        -57.73640823364258,
        -0.31047534942626953
      ],
      "type": "VEC3"
    },
    {
      "bufferView": 2,
      "byteOffset": 3931968,
      "componentType": 5126,
      "count": 65532,
      "max": [
        1.0,
        0.9999707341194153,
        1.0
      ],
      "min": [
        -1.0,
        -0.9999876618385315,
        -1.0
      ],
      "type": "VEC3"
    },
    {
      "bufferView": 1,
      "byteOffset": 1048528,
      "componentType": 5126,
      "count": 65532,
      "max": [
        0.9994857907295227,
        0.9379960298538208
      ],
      "min": [
        0.0004753097891807556,
        0.0004755258560180664
      ],
      "type": "VEC2"
    },
    {
      "bufferView": 0,
      "byteOffset": 1103976,
      "componentType": 5125,
      "count": 177291,
      "type": "SCALAR"
    },
    {
      "bufferView": 2,
      "byteOffset": 4718352,
      "componentType": 5126,
      "count": 65532,
      "max": [
        49.10662078857422,
        43.87060546875,
        16.064380645751953
      ],
      "min": [
        -54.41584014892578,
        -56.25303649902344,
        -0.22411060333251953
      ],
      "type": "VEC3"
    },
    {
      "bufferView": 2,
      "byteOffset": 5504736,
      "componentType": 5126,
      "count": 65532,
      "max": [
        0.9999620914459229,
        1.0,
        1.0
      ],
      "min": [
        -0.9999718070030212,
        -1.0,
        -1.0
      ],
      "type": "VEC3"
    },
    {
      "bufferView": 1,
      "byteOffset": 1572784,
      "componentType": 5126,
      "count": 65532,
      "max": [
        0.9994933009147644,
        0.9380427002906799
      ],
      "min": [
        0.00047534890472888947,
        0.0004763863980770111
      ],
      "type": "VEC2"
    },
    {
      "bufferView": 0,
      "byteOffset": 1813140,
      "componentType": 5125,
      "count": 174141,
      "type": "SCALAR"
    },
    {
      "bufferView": 2,
      "byteOffset": 6291120,
      "componentType": 5126,
      "count": 21563,
      "max": [
        17.65268325805664,
        6.648073196411133,
        9.04521369934082
      ],
      "min": [
        -29.73206901550293,
        -17.5819091796875,
        1.856633186340332
      ],
      "type": "VEC3"
    },
    {
      "bufferView": 2,
      "byteOffset": 6549876,
      "componentType": 5126,
      "count": 21563,
      "max": [
        0.9996325969696045,
        0.9999553561210632,
        0.9691494107246399
      ],
      "min": [
        -0.9995272755622864,
        -0.999623715877533,
        -0.9703674912452698
      ],
      "type": "VEC3"
    },
    {
      "bufferView": 1,
      "byteOffset": 2097040,
      "componentType": 5126,
      "count": 21563,
      "max": [
        0.9994322061538696,
        0.8316127061843872
      ],
      "min": [
        0.0004755108093377203,
        0.0004838034510612488
      ],
      "type": "VEC2"
    },
    {
      "bufferView": 0,
      "byteOffset": 2509704,
      "componentType": 5125,
      "count": 53313,
      "type": "SCALAR"
    },
    {
      "bufferView": 2,
      "byteOffset": 6808632,
      "componentType": 5126,
      "count": 82,
      "max": [
        81.46745300292969,
        75.76892852783203,
        96.370849609375
      ],
      "min": [
        -74.31536865234375,
        -88.03057098388672,
        -0.02410888671875
      ],
      "type": "VEC3"
    },
    {
      "bufferView": 2,
      "byteOffset": 6809616,
      "componentType": 5126,
      "count": 82,
      "max": [
        0.8664888143539429,
        0.8636897206306458,
        1.0
      ],
      "min": [
        -0.9081375598907471,
        -0.8636897802352905,
        -1.0
      ],
      "type": "VEC3"
    },
    {
      "bufferView": 1,
      "byteOffset": 2269544,
      "componentType": 5126,
      "count": 82,
      "max": [
        0.9317137002944946,
        0.9339517951011658
      ],
      "min": [
        0.05791955813765526,
        0.0004909108974970877
      ],
      "type": "VEC2"
    },
    {
      "bufferView": 0,
      "byteOffset": 2722956,
      "componentType": 5125,
      "count": 240,
      "type": "SCALAR"
    },
    {
      "bufferView": 2,
      "byteOffset": 6810600,
      "componentType": 5126,
      "count": 3985,
      "max": [
        51.24932861328125,
        46.99917984008789,
        -8.58306884765625e-06
      ],
      "min": [
        -55.01066589355469,
        -59.26081466674805,
        -8.58306884765625e-06
      ],
      "type": "VEC3"
    },
    {
      "bufferView": 2,
      "byteOffset": 6858420,
      "componentType": 5126,
      "count": 3985,
      "max": [
        4.859395221282203e-13,
        0.0,
        1.0
      ],
      "min": [
        -6.802322919351178e-13,
        0.0,
        1.0
      ],
      "type": "VEC3"
    },
    {
      "bufferView": 1,
      "byteOffset": 2270200,
      "componentType": 5126,
      "count": 3985,
      "max": [
        0.5012680888175964,
        0.5028272271156311
      ],
      "min": [
        0.0004788018995895982,
        0.000478183152154088
      ],
      "type": "VEC2"
    },
    {
      "bufferView": 0,
      "byteOffset": 2723916,
      "componentType": 5125,
      "count": 13824,
      "type": "SCALAR"
    },
    {
      "bufferView": 2,
      "byteOffset": 6906240,
      "componentType": 5126,
      "count": 4915,
      "max": [
        13.722750663757324,
        16.593143463134766,
        11.920165061950684
      ],
      "min": [
        -32.36974334716797,
        -21.816768646240234,
        -0.36504554748535156
      ],
      "type": "VEC3"
    },
    {
      "bufferView": 2,
      "byteOffset": 6965220,
      "componentType": 5126,
      "count": 4915,
      "max": [
        0.7427961230278015,
        0.6877703666687012,
        0.9999982714653015
      ],
      "min": [
        -0.6788337826728821,
        -0.7242331504821777,
        0.4586425721645355
      ],
      "type": "VEC3"
    },
    {
      "bufferView": 1,
      "byteOffset": 2302080,
      "componentType": 5126,
      "count": 4915,
      "max": [
        0.9332177639007568,
        0.7298808693885803
      ],
      "min": [
        0.37222418189048767,
        0.000513242615852505
      ],
      "type": "VEC2"
    },
    {
      "bufferView": 0,
      "byteOffset": 2779212,
      "componentType": 5125,
      "count": 27648,
      "type": "SCALAR"
    }
  ],
  "asset": {
    "extras": {
      "author": "Shahriar Shahrabi (https://sketchfab.com/shahriyarshahrabi)",
      "license": "CC-BY-4.0 (http://creativecommons.org/licenses/by/4.0/)",
      "source": "https://sketchfab.com/3d-models/house-on-the-hill-3efa0f73228946009b9a8ee885f59165",
      "title": "House on the Hill"
    },
    "generator": "Sketchfab-14.79.0",
    "version": "2.0"
  },
  "bufferViews": [
    {
      "buffer": 0,
      "byteLength": 2889804,
      "name": "floatBufferViews",
      "target": 34963
    },
    {
      "buffer": 0,
      "byteLength": 2341400,
      "byteOffset": 2889804,
      "byteStride": 8,
      "name": "floatBufferViews",
      "target": 34962
    },
    {
      "buffer": 0,
      "byteLength": 7024200,
      "byteOffset": 5231204,
      "byteStride": 12,
      "name": "floatBufferViews",
      "target": 34962
    }
  ],
  "buffers": [
    {
      "byteLength": 12255404,
      "uri": "scene.bin"
    }
  ],
  "extensionsUsed": [
    "KHR_materials_unlit"
  ],
  "images": [
    {
      "uri": "textures/AllTogetherBake_baseColor.jpeg"
    }
  ],
  "materials": [
    {
      "extensions": {
        "KHR_materials_unlit": {}
      },
      "name": "AllTogetherBake",
      "pbrMetallicRoughness": {
        "baseColorTexture": {
          "index": 0
        },
        "metallicFactor": 0.0
      }
    }
  ],
  "meshes": [
    {
      "name": "Details_AllTogetherBake_0",
      "primitives": [
        {
          "attributes": {
            "NORMAL": 1,
            "POSITION": 0,
            "TEXCOORD_0": 2
          },
          "indices": 3,
          "material": 0,
          "mode": 4
        }
      ]
    },
    {
      "name": "Details_AllTogetherBake_0",
      "primitives": [
        {
          "attributes": {
            "NORMAL": 5,
            "POSITION": 4,
            "TEXCOORD_0": 6
          },
          "indices": 7,
          "material": 0,
          "mode": 4
        }
      ]
    },
    {
      "name": "Details_AllTogetherBake_0",
      "primitives": [
        {
          "attributes": {
            "NORMAL": 9,
            "POSITION": 8,
            "TEXCOORD_0": 10
          },
          "indices": 11,
          "material": 0,
          "mode": 4
        }
      ]
    },
    {
      "name": "Details_AllTogetherBake_0",
      "primitives": [
        {
          "attributes": {
            "NORMAL": 13,
            "POSITION": 12,
            "TEXCOORD_0": 14
          },
          "indices": 15,
          "material": 0,
          "mode": 4
        }
      ]
    },
    {
      "name": "Details_AllTogetherBake_0",
      "primitives": [
        {
          "attributes": {
            "NORMAL": 17,
            "POSITION": 16,
            "TEXCOORD_0": 18
          },
          "indices": 19,
          "material": 0,
          "mode": 4
        }
      ]
    },
    {
      "name": "Skybox_AllTogetherBake_0",
      "primitives": [
        {
          "attributes": {
            "NORMAL": 21,
            "POSITION": 20,
            "TEXCOORD_0": 22
          },
          "indices": 23,
          "material": 0,
          "mode": 4
        }
      ]
    },
    {
      "name": "BaseGround_AllTogetherBake_0",
      "primitives": [
        {
          "attributes": {
            "NORMAL": 25,
            "POSITION": 24,
            "TEXCOORD_0": 26
          },
          "indices": 27,
          "material": 0,
          "mode": 4
        }
      ]
    },
    {
      "name": "Hill_AllTogetherBake_0",
      "primitives": [
        {
          "attributes": {
            "NORMAL": 29,
            "POSITION": 28,
            "TEXCOORD_0": 30
          },
          "indices": 31,
          "material": 0,
          "mode": 4
        }
      ]
    }
  ],
  "nodes": [
    {
      "children": [
        1
      ],
      "matrix": [
        1.0,
        0.0,
        0.0,
        0.0,
        0.0,
        2.220446049250313e-16,
        -1.0,
        0.0,
        0.0,
        1.0,
        2.220446049250313e-16,
        0.0,
        0.0,
        0.0,
        0.0,
        1.0
      ],
      "name": "Sketchfab_model"
    },
    {
      "children": [
        2
      ],
      "matrix": [
        0.009999999776482582,
        0.0,
        0.0,
        0.0,
        0.0,
        0.0,
        0.009999999776482582,
        0.0,
        0.0,
        -0.009999999776482582,
        0.0,
        0.0,
        0.0,
        0.0,
        0.0,
        1.0
      ],
      "name": "a0021e9ee9394de49c040cb19494ecc2.fbx"
    },
    {
      "children": [
        3,
        9,
        11,
        13
      ],
      "name": "RootNode"
    },
    {
      "children": [
        4,
        5,
        6,
        7,
        8
      ],
      "matrix": [
        100.0,
        0.0,
        0.0,
        0.0,
        0.0,
        -1.629206793918314e-05,
        -99.99999999999868,
        0.0,
        0.0,
        99.99999999999868,
        -1.629206793918314e-05,
        0.0,
        0.0,
        0.0,
        0.0,
        1.0
      ],
      "name": "Details"
    },
    {
      "mesh": 0,
      "name": "Details_AllTogetherBake_0"
    },
    {
      "mesh": 1,
      "name": "Details_AllTogetherBake_0"
    },
    {
      "mesh": 2,
      "name": "Details_AllTogetherBake_0"
    },
    {
      "mesh": 3,
      "name": "Details_AllTogetherBake_0"
    },
    {
      "mesh": 4,
      "name": "Details_AllTogetherBake_0"
    },
    {
      "children": [
        10
      ],
      "matrix": [
        100.0,
        0.0,
        0.0,
        0.0,
        0.0,
        -1.629206793918314e-05,
        -99.99999999999868,
        0.0,
        0.0,
        99.99999999999868,
        -1.629206793918314e-05,
        0.0,
        0.0,
        0.0,
        0.0,
        1.0
      ],
      "name": "Skybox"
    },
    {
      "mesh": 5,
      "name": "Skybox_AllTogetherBake_0"
    },
    {
      "children": [
        12
      ],
      "matrix": [
        100.0,
        0.0,
        0.0,
        0.0,
        0.0,
        -1.629206793918314e-05,
        -99.99999999999868,
        0.0,
        0.0,
        99.99999999999868,
        -1.629206793918314e-05,
        0.0,
        0.0,
        0.0,
        0.0,
        1.0
      ],
      "name": "BaseGround"
    },
    {
      "mesh": 6,
      "name": "BaseGround_AllTogetherBake_0"
    },
    {
      "children": [
        14
      ],
      "matrix": [
        100.0,
        0.0,
        0.0,
        0.0,
        0.0,
        -1.629206793918314e-05,
        -99.99999999999868,
        0.0,
        0.0,
        99.99999999999868,
        -1.629206793918314e-05,
        0.0,
        0.0,
        0.0,
        0.0,
        1.0
      ],
      "name": "Hill"
    },
    {
      "mesh": 7,
      "name": "Hill_AllTogetherBake_0"
    }
  ],
  "samplers": [
    {
      "magFilter": 9729,
      "minFilter": 9987,
      "wrapS": 10497,
      "wrapT": 10497
    }
  ],
  "scene": 0,
  "scenes": [
    {
      "name": "Sketchfab_Scene",
      "nodes": [
        0
      ]
    }
  ],
  "textures": [
    {
      "sampler": 0,
      "source": 0
    }
  ]
}
